<?xml version="1.0" encoding="UTF-8" standalone="no"?>
<svg
   viewBox="0 0 1784 653"
   version="1.1"
   id="svg1028"
   sodipodi:docname="halle_new.svg"
   inkscape:version="1.2 (dc2aedaf03, 2022-05-15)"
   xml:space="preserve"
   inkscape:export-filename="halle_new.svg"
   inkscape:export-xdpi="96"
   inkscape:export-ydpi="96"
   xmlns:inkscape="http://www.inkscape.org/namespaces/inkscape"
   xmlns:sodipodi="http://sodipodi.sourceforge.net/DTD/sodipodi-0.dtd"
   xmlns="http://www.w3.org/2000/svg"
   xmlns:svg="http://www.w3.org/2000/svg"><sodipodi:namedview
     id="namedview108"
     pagecolor="#202020"
     bordercolor="#000000"
     borderopacity="0.25"
     inkscape:showpageshadow="2"
     inkscape:pageopacity="0"
     inkscape:pagecheckerboard="0"
     inkscape:deskcolor="#d1d1d1"
     showgrid="false"
     inkscape:zoom="0.70710678"
     inkscape:cx="765.79664"
     inkscape:cy="208.5965"
     inkscape:window-width="1920"
     inkscape:window-height="1017"
     inkscape:window-x="-8"
     inkscape:window-y="-8"
     inkscape:window-maximized="1"
     inkscape:current-layer="variables"
     showguides="true" /><defs
     id="defs928"><filter
       id="drop-shadow-1"
       filterUnits="userSpaceOnUse"><feOffset
         dx="0"
         dy="0"
         id="feOffset862" /><feGaussianBlur
         result="blur"
         stdDeviation="5"
         id="feGaussianBlur864" /><feFlood
         flood-color="#000"
         flood-opacity="1"
         id="feFlood866" /><feComposite
         in2="blur"
         operator="in"
         id="feComposite868"
         result="result1" /><feComposite
         in="SourceGraphic"
         in2="result1"
         id="feComposite870" /></filter><filter
       id="drop-shadow-2"
       filterUnits="userSpaceOnUse"><feOffset
         dx="0"
         dy="0"
         id="feOffset873" /><feGaussianBlur
         result="blur-2"
         stdDeviation="5"
         id="feGaussianBlur875" /><feFlood
         flood-color="#000"
         flood-opacity="1"
         id="feFlood877" /><feComposite
         in2="blur-2"
         operator="in"
         id="feComposite879"
         result="result1" /><feComposite
         in="SourceGraphic"
         in2="result1"
         id="feComposite881" /></filter><filter
       id="drop-shadow-3"
       filterUnits="userSpaceOnUse"><feOffset
         dx="0"
         dy="0"
         id="feOffset884" /><feGaussianBlur
         result="blur-3"
         stdDeviation="5"
         id="feGaussianBlur886" /><feFlood
         flood-color="#000"
         flood-opacity="1"
         id="feFlood888" /><feComposite
         in2="blur-3"
         operator="in"
         id="feComposite890"
         result="result1" /><feComposite
         in="SourceGraphic"
         in2="result1"
         id="feComposite892" /></filter><filter
       id="drop-shadow-4"
       filterUnits="userSpaceOnUse"><feOffset
         dx="0"
         dy="0"
         id="feOffset895" /><feGaussianBlur
         result="blur-4"
         stdDeviation="5"
         id="feGaussianBlur897" /><feFlood
         flood-color="#000"
         flood-opacity="1"
         id="feFlood899" /><feComposite
         in2="blur-4"
         operator="in"
         id="feComposite901"
         result="result1" /><feComposite
         in="SourceGraphic"
         in2="result1"
         id="feComposite903" /></filter><filter
       id="drop-shadow-5"
       filterUnits="userSpaceOnUse"><feOffset
         dx="0"
         dy="0"
         id="feOffset906" /><feGaussianBlur
         result="blur-5"
         stdDeviation="5"
         id="feGaussianBlur908" /><feFlood
         flood-color="#000"
         flood-opacity="1"
         id="feFlood910" /><feComposite
         in2="blur-5"
         operator="in"
         id="feComposite912"
         result="result1" /><feComposite
         in="SourceGraphic"
         in2="result1"
         id="feComposite914" /></filter><filter
       id="drop-shadow-6"
       filterUnits="userSpaceOnUse"><feOffset
         dx="0"
         dy="0"
         id="feOffset917" /><feGaussianBlur
         result="blur-6"
         stdDeviation="5"
         id="feGaussianBlur919" /><feFlood
         flood-color="#000"
         flood-opacity="1"
         id="feFlood921" /><feComposite
         in2="blur-6"
         operator="in"
         id="feComposite923"
         result="result1" /><feComposite
         in="SourceGraphic"
         in2="result1"
         id="feComposite925" /></filter></defs><g
     id="structure"
     inkscape:groupmode="layer"><circle
       style="fill:#dbdbdb;fill-opacity:1;stroke-width:10.8793;stroke-opacity:0.992157"
       id="circle1607"
       cx="1173.7566"
       cy="346.36285"
       r="55" /><circle
       style="fill:#dbdbdb;fill-opacity:1;stroke-width:10.8793;stroke-opacity:0.992157"
       id="circle1604"
       cx="1175.0966"
       cy="132.63304"
       r="55" /><circle
       style="fill:#dbdbdb;fill-opacity:1;stroke-width:10.8793;stroke-opacity:0.992157"
       id="path1531"
       cx="422.97711"
       cy="117.22403"
       r="55" /><circle
       style="fill:#dbdbdb;fill-opacity:1;stroke-width:10.8793;stroke-opacity:0.992157"
       id="circle1592"
       cx="898.37402"
       cy="117.22403"
       r="55" /><circle
       style="fill:#dbdbdb;fill-opacity:1;stroke-width:10.8793;stroke-opacity:0.992157"
       id="circle1596"
       cx="421.00452"
       cy="548.23743"
       r="55" /><text
       xml:space="preserve"
       style="font-size:37.3333px;font-family:sans-serif;-inkscape-font-specification:sans-serif;fill:#37826b;stroke-width:30.2154;stroke-opacity:0.992157"
       x="603.42999"
       y="343.16101"
       id="text2202">          <tspan
   id="tspan2200"
   x="603.42999"
   y="343.16101"
   style="font-style:normal;font-variant:normal;font-weight:700;font-stretch:normal;font-size:37.3333px;font-family:ArialMT, Arial;-inkscape-font-specification:'ArialMT, Arial Bold';fill:#ffffff;fill-opacity:1;stroke-width:30.2154">HALLE</tspan>      </text><path
       fill="none"
       stroke="#dbdbdb"
       stroke-miterlimit="10"
       stroke-width="11"
       id="rect932"
       d="m 1337.5,5.5 v 642 H 5.5 V 5.5 Z" /><path
       fill="none"
       stroke="#dbdbdb"
       stroke-miterlimit="10"
       stroke-width="11"
       id="rect934"
       d="m 5.5,5.5 h 299 v 642 H 5.5 Z" /><path
       fill="none"
       stroke="#dbdbdb"
       stroke-miterlimit="10"
       stroke-width="11"
       id="rect936"
       d="m 1013.5,5.5 h 324 v 642 h -324 z" /><path
       fill="none"
       stroke="#dbdbdb"
       stroke-miterlimit="10"
       stroke-width="11"
       id="rect938"
       d="m 5.5,5.5 h 299 v 321 H 5.5 Z" /><path
       fill="none"
       stroke="#dbdbdb"
       stroke-miterlimit="10"
       stroke-width="11"
       id="rect940"
       d="m 1013.5,215.5 h 324 v 223 h -324 z" /><circle
       style="fill:#dbdbdb;fill-opacity:1;stroke-width:10.8793;stroke-opacity:0.992157"
       id="circle1594"
       cx="898.37402"
       cy="547.2511"
       r="55" /><g
       id="g948"
       fill="#4db15f"><rect
         x="392"
         y="125"
         width="55.07"
         height="24"
         rx="3.8900001"
         ry="3.8900001"
         id="rect944" /><rect
         x="445.75"
         y="131.14"
         width="8.25"
         height="11.86"
         rx="1.47"
         ry="1.47"
         id="rect946" /></g><g
       id="g956"
       fill="#4db15f"><rect
         x="391.67001"
         y="559.10999"
         width="55.07"
         height="24"
         rx="3.8900001"
         ry="3.8900001"
         id="rect952" /><rect
         x="445.41"
         y="565.25"
         width="8.25"
         height="11.86"
         rx="1.47"
         ry="1.47"
         id="rect954" /></g><g
       id="g964"
       fill="#4db15f"><rect
         x="869.10999"
         y="127.67"
         width="55.07"
         height="24"
         rx="3.8900001"
         ry="3.8900001"
         id="rect960" /><rect
         x="922.85999"
         y="133.81"
         width="8.25"
         height="11.86"
         rx="1.47"
         ry="1.47"
         id="rect962" /></g><g
       id="g972"
       fill="#4db15f"><rect
         x="868.89001"
         y="559.10999"
         width="55.07"
         height="24"
         rx="3.8900001"
         ry="3.8900001"
         id="rect968" /><rect
         x="922.64001"
         y="565.25"
         width="8.25"
         height="11.86"
         rx="1.47"
         ry="1.47"
         id="rect970" /></g><circle
       style="fill:#dbdbdb;fill-opacity:1;stroke-width:10.8793;stroke-opacity:0.992157"
       id="circle1552"
       cx="1560.5544"
       cy="329.47018"
       r="55" /><g
       id="g980"
       fill="#4db15f"><rect
         x="1145.4758"
         y="142.8067"
         width="55.07"
         height="24"
         rx="3.8900001"
         ry="3.8900001"
         id="rect976" /><rect
         x="1199.2258"
         y="148.9467"
         width="8.25"
         height="11.86"
         rx="1.47"
         ry="1.47"
         id="rect978" /></g><g
       id="g988"
       fill="#4db15f"><rect
         x="1144.1222"
         y="355.56406"
         width="55.07"
         height="24"
         rx="3.8900001"
         ry="3.8900001"
         id="rect984"
         style="fill:#4db15f;fill-opacity:1" /><rect
         x="1197.8722"
         y="361.70407"
         width="8.25"
         height="11.86"
         rx="1.47"
         ry="1.47"
         id="rect986" /></g><text
       xml:space="preserve"
       style="font-size:37.3333px;font-family:sans-serif;-inkscape-font-specification:sans-serif;fill:#37826b;stroke-width:30.2154;stroke-opacity:0.992157"
       x="1031.646"
       y="488.224"
       id="text3776">          <tspan
   id="tspan3774"
   x="1030.251"
   y="488.224"
   style="font-style:normal;font-variant:normal;font-weight:700;font-stretch:normal;font-size:37.3333px;font-family:ArialMT, Arial;-inkscape-font-specification:'ArialMT, Arial Bold';fill:#ffffff;fill-opacity:1;stroke-width:30.2154">PAC</tspan>      </text><text
       xml:space="preserve"
       style="font-size:37.3333px;font-family:sans-serif;-inkscape-font-specification:sans-serif;fill:#37826b;stroke-width:30.2154;stroke-opacity:0.992157"
       x="1030.251"
       y="262.26001"
       id="text3780">          <tspan
   id="tspan3778"
   x="1030.251"
   y="262.26001"
   style="font-style:normal;font-variant:normal;font-weight:700;font-stretch:normal;font-size:37.3333px;font-family:ArialMT, Arial;-inkscape-font-specification:'ArialMT, Arial Bold';fill:#ffffff;fill-opacity:1;stroke-width:30.2154">OUTILLAGE</tspan>      </text><text
       xml:space="preserve"
       style="font-size:37.3333px;font-family:sans-serif;-inkscape-font-specification:sans-serif;fill:#37826b;stroke-width:30.2154;stroke-opacity:0.992157"
       x="1030.251"
       y="51.639"
       id="text3784">          <tspan
   id="tspan3782"
   x="1030.251"
   y="51.639"
   style="font-style:normal;font-variant:normal;font-weight:700;font-stretch:normal;font-size:37.3333px;font-family:ArialMT, Arial;-inkscape-font-specification:'ArialMT, Arial Bold';fill:#ffffff;fill-opacity:1;stroke-width:30.2154">ELECTRIQUE</tspan>      </text><text
       xml:space="preserve"
       style="font-size:37.3333px;font-family:sans-serif;-inkscape-font-specification:sans-serif;fill:#37826b;stroke-width:30.2154;stroke-opacity:0.992157"
       x="24.572001"
       y="54.429001"
       id="text3788">          <tspan
   id="tspan3786"
   x="24.572001"
   y="54.429001"
   style="font-style:normal;font-variant:normal;font-weight:700;font-stretch:normal;font-size:37.3333px;font-family:ArialMT, Arial;-inkscape-font-specification:'ArialMT, Arial Bold';fill:#ffffff;fill-opacity:1;stroke-width:30.2154">ETAGE</tspan>      </text><text
       xml:space="preserve"
       style="font-size:37.3333px;font-family:sans-serif;-inkscape-font-specification:sans-serif;fill:#37826b;stroke-width:30.2154;stroke-opacity:0.992157"
       x="24.572001"
       y="373.84698"
       id="text3792">          <tspan
   id="tspan3790"
   x="24.572001"
   y="373.84698"
   style="font-style:normal;font-variant:normal;font-weight:700;font-stretch:normal;font-size:37.3333px;font-family:ArialMT, Arial;-inkscape-font-specification:'ArialMT, Arial Bold';fill:#ffffff;fill-opacity:1;stroke-width:30.2154">BUREAUX</tspan>      </text><circle
       style="fill:#dbdbdb;fill-opacity:1;stroke-width:10.8793;stroke-opacity:0.992157"
       id="circle1398"
       cx="154.21019"
       cy="167.03221"
       r="55" /><circle
       style="fill:#dbdbdb;fill-opacity:1;stroke-width:10.8793;stroke-opacity:0.992157"
       id="circle1398-5"
       cx="155"
       cy="499.23743"
       r="55" /><circle
       style="fill:#dbdbdb;fill-opacity:1;stroke-width:10.8793;stroke-opacity:0.992157"
       id="circle2652"
       cx="1173.0494"
       cy="547.88824"
       r="55" /><path
       style="fill:#4db15f;fill-opacity:1;stroke-width:20.1053;stroke-opacity:0.992157"
       d="m 133.42688,180.54474 c 0,0 3.12973,-14.52598 20.71004,-6.78542 17.58029,7.74056 -0.45483,-0.18663 -0.45483,-0.18663 0,0 1.0255,0.52784 2.03344,0.17841 1.00793,-0.34952 2.32268,-0.4779 2.32268,-0.4779 0,0 5.16932,-1.0646 10.02831,2.64759 4.85895,3.71219 -0.13639,-0.111 -0.13639,-0.111 0,0 0.74372,0.68595 2.75176,0.0203 2.00804,-0.66577 6.66866,0.14115 6.66866,0.14115 0,0 10.58561,3.12712 9.17255,10.97521 -1.41305,7.84806 0,0.18149 0,0.18149 0,0 0.1487,0.80702 1.73536,1.65435 1.58661,0.84734 2.70218,3.93414 2.70218,3.93414 0,0 2.33033,6.03232 -6.0985,9.66382 -8.42882,3.63149 0.54538,-0.26229 0.54538,-0.26229 0,0 -2.00803,0.40351 -2.97488,1.5333 -0.96682,1.12982 -2.40469,6.6174 -12.84154,5.93145 -10.43688,-0.68594 1.01642,0.12101 1.01642,0.12101 0,0 -0.74373,-0.36311 -2.85093,0.26229 -2.10722,0.62543 -2.72698,1.77542 -8.57757,0.92807 -5.85061,-0.84734 0.74372,0.22192 0.74372,0.22192 0,0 -1.16516,-0.60523 -2.42948,-0.0808 -1.26434,0.52456 -4.28879,3.51046 -11.65162,2.46135 0,0 -2.26542,0.0991 -6.89322,-3.09655 -4.62785,-3.19555 0.35058,0.31385 0.35058,0.31385 0,0 -0.45579,-0.85596 -2.24381,-0.91303 -1.78803,-0.057 -9.04529,-0.14261 -11.42931,-6.87614 -2.38402,-6.73349 -0.0701,-0.14261 -0.0701,-0.14261 0,0 -16.54799,-5.47814 -2.76971,-14.52272 13.77832,-9.04456 0.21028,-0.17109 0.21028,-0.17109 0,0 -0.49026,-7.29778 10.4304,-7.54348 z"
       id="path1595"
       sodipodi:nodetypes="cscscscscscscscsscsscscscssc" /><path
       id="path2173"
       style="fill:#4db15f;fill-opacity:1;stroke-width:7.42813;stroke-opacity:0.992157"
       d="m 1560.2351,337.77489 -13.7426,18.86582 a 16.679655,15.319991 0 0 0 -0.4253,0.58514 l -0.2118,0.28977 h 0.04 a 16.679655,15.319991 0 0 0 -2.3394,7.76358 16.679655,15.319991 0 0 0 16.6796,15.31999 16.679655,15.319991 0 0 0 16.6797,-15.31999 16.679655,15.319991 0 0 0 -2.3044,-7.76358 h 0.011 l -0.026,-0.0364 a 16.679655,15.319991 0 0 0 -1.0226,-1.40265 z" /><text
       xml:space="preserve"
       style="font-size:37.3333px;font-family:sans-serif;-inkscape-font-specification:sans-serif;text-align:center;text-anchor:middle;fill:#37826b;stroke-width:30.2154;stroke-opacity:0.992157"
       x="1735.2273"
       y="193.63281"
       id="text2180"><tspan
   id="tspan2178"
   x="1595.5829"
   y="193.63281"
   style="font-style:normal;font-variant:normal;font-weight:700;font-stretch:normal;font-size:37.3333px;font-family:ArialMT, Arial;-inkscape-font-specification:'ArialMT, Arial Bold';text-align:center;text-anchor:middle;fill:#ffffff;fill-opacity:1;stroke-width:30.2154">PARKING</tspan>      </text><path
       style="fill:#4db15f;fill-opacity:1;stroke-width:20.1053;stroke-opacity:0.992157"
       d="m 133.42688,512.80647 c 0,0 3.12973,-14.52598 20.71004,-6.78542 17.58029,7.74056 -0.45483,-0.18663 -0.45483,-0.18663 0,0 1.0255,0.52784 2.03344,0.17841 1.00793,-0.34952 2.32268,-0.4779 2.32268,-0.4779 0,0 5.16932,-1.0646 10.02831,2.64759 4.85895,3.71219 -0.13639,-0.111 -0.13639,-0.111 0,0 0.74372,0.68595 2.75176,0.0203 2.00804,-0.66577 6.66866,0.14115 6.66866,0.14115 0,0 10.58561,3.12712 9.17255,10.97521 -1.41305,7.84806 0,0.18149 0,0.18149 0,0 0.1487,0.80702 1.73536,1.65435 1.58661,0.84734 2.70218,3.93414 2.70218,3.93414 0,0 2.33033,6.03232 -6.0985,9.66382 -8.42882,3.63149 0.54538,-0.26229 0.54538,-0.26229 0,0 -2.00803,0.40351 -2.97488,1.5333 -0.96682,1.12982 -2.40469,6.6174 -12.84154,5.93145 -10.43688,-0.68594 1.01642,0.12101 1.01642,0.12101 0,0 -0.74373,-0.36311 -2.85093,0.26229 -2.10722,0.62543 -2.72698,1.77542 -8.57757,0.92807 -5.85061,-0.84734 0.74372,0.22192 0.74372,0.22192 0,0 -1.16516,-0.60523 -2.42948,-0.0808 -1.26434,0.52456 -4.28879,3.51046 -11.65162,2.46135 0,0 -2.26542,0.0991 -6.89322,-3.09655 -4.62785,-3.19555 0.35058,0.31385 0.35058,0.31385 0,0 -0.45579,-0.85596 -2.24381,-0.91303 -1.78803,-0.057 -9.04529,-0.14261 -11.42931,-6.87614 -2.38402,-6.73349 -0.0701,-0.14261 -0.0701,-0.14261 0,0 -16.54799,-5.47814 -2.76971,-14.52272 13.77832,-9.04456 0.21028,-0.17109 0.21028,-0.17109 0,0 -0.49026,-7.29778 10.4304,-7.54348 z"
       id="path1595-0"
       sodipodi:nodetypes="cscscscscscscscsscsscscscssc" /></g><g
     id="variables"
     font-family="ArialMT, Arial"
     inkscape:groupmode="layer"><text
       xml:space="preserve"
       style="font-style:normal;font-variant:normal;font-weight:bold;font-stretch:normal;font-size:37.3333px;font-family:ArialMT, Arial;-inkscape-font-specification:'ArialMT, Arial Bold';fill:#d6283d;fill-opacity:1;stroke-width:9.9326;stroke-opacity:0.992157"
       x="1173.3317"
       y="561.89001"
       id="compressor"
       inkscape:label="#compressor"><tspan
         sodipodi:role="line"
         id="tspan2654"
         x="1173.3317"
         y="561.89001"
         style="font-size:37.3333px;text-align:center;text-anchor:middle;fill:#d6283d;fill-opacity:1">xxx</tspan></text><text
       id="battery_1"
       transform="translate(396.19,142.67)"
       fill="#dbdbdb"
       font-size="17px"><tspan
         x="0"
         y="0"
         id="tspan991">xxx</tspan></text><text
       id="temp_1"
       transform="translate(385.67,111.22)"
       font-size="25px"
       font-weight="bold"><tspan
         x="0"
         y="0"
         id="tspan994">xxx</tspan></text><text
       id="battery_2"
       transform="translate(396.68,577.42)"
       fill="#dbdbdb"
       font-size="17px"><tspan
         x="0"
         y="0"
         id="tspan997">xxx</tspan></text><text
       id="temp_2"
       transform="translate(386.16,545.98)"
       font-size="25px"
       font-weight="bold"><tspan
         x="0"
         y="0"
         id="tspan1000">xxx</tspan></text><text
       id="battery_3"
       transform="translate(874.68,145.2)"
       fill="#dbdbdb"
       font-size="17px"><tspan
         x="0"
         y="0"
         id="tspan1003">xxx</tspan></text><text
       id="temp_3"
       transform="translate(864.16,113.76)"
       font-size="25px"
       font-weight="bold"><tspan
         x="0"
         y="0"
         id="tspan1006">xxx</tspan></text><text
       id="battery_4"
       transform="translate(873.87,577.2)"
       fill="#dbdbdb"
       font-size="17px"><tspan
         x="0"
         y="0"
         id="tspan1009">xxx</tspan></text><text
       id="temp_4"
       transform="translate(863.35,545.76)"
       font-size="25px"
       font-weight="bold"><tspan
         x="0"
         y="0"
         id="tspan1012">xxx</tspan></text><text
       id="battery_5"
       fill="#dbdbdb"
       font-size="17px"
       x="1151.1158"
       y="160.34671"><tspan
         x="1151.1158"
         y="160.34671"
         id="tspan1015">xxx</tspan></text><text
       id="temp_5"
       font-size="25px"
       font-weight="bold"
       x="1140.5958"
       y="128.8967"><tspan
         x="1140.5958"
         y="128.8967"
         id="tspan1018">xxx</tspan></text><text
       id="battery_6"
       fill="#dbdbdb"
       font-size="17px"
       x="1151.0222"
       y="373.87405"><tspan
         x="1151.0222"
         y="373.87405"
         id="tspan1021">xxx</tspan></text><text
       id="temp_6"
       font-size="25px"
       font-weight="bold"
       x="1139.5022"
       y="342.43405"><tspan
         x="1139.5022"
         y="342.43405"
         id="tspan1024">xxx</tspan></text><text
       id="co2"
       fill="#dbdbdb"
       font-size="17px"
       x="126.51352"
       y="198.73926"
       inkscape:label="#co2"
       style="font-size:14.6667px"><tspan
         x="126.51352"
         y="198.73926"
         id="tspan1406"
         style="font-style:normal;font-variant:normal;font-weight:bold;font-stretch:normal;font-size:14.6667px;font-family:ArialMT, Arial;-inkscape-font-specification:'ArialMT, Arial Bold'">xxx</tspan></text><text
       id="co2_bureaux"
       fill="#dbdbdb"
       font-size="17px"
       x="126.51352"
       y="531.00098"
       inkscape:label="#co2"
       style="font-size:14.6667px"><tspan
         x="126.51352"
         y="531.00098"
         id="tspan1406-9"
         style="font-style:normal;font-variant:normal;font-weight:bold;font-stretch:normal;font-size:14.6667px;font-family:ArialMT, Arial;-inkscape-font-specification:'ArialMT, Arial Bold'">xxx</tspan></text><text
       id="temp_7"
       font-size="25px"
       font-weight="bold"
       x="118.38253"
       y="161.02818"
       inkscape:label="#temp_7"><tspan
         x="118.38253"
         y="161.02818"
         id="tspan1410">xxx</tspan></text><text
       id="temp_bureaux"
       font-size="25px"
       font-weight="bold"
       x="119.85538"
       y="494.65863"
       inkscape:label="#temp_7"><tspan
         x="119.85538"
         y="494.65863"
         id="tspan1410-6">xxx</tspan></text><text
       id="hum_ext"
       fill="#dbdbdb"
       font-size="17px"
       x="1547.2181"
       y="370.82407"
       style="font-size:13.3333px"><tspan
         x="1547.2181"
         y="370.82407"
         id="tspan1558"
         style="font-style:normal;font-variant:normal;font-weight:bold;font-stretch:normal;font-size:13.3333px;font-family:ArialMT, Arial;-inkscape-font-specification:'ArialMT, Arial Bold'">xxx</tspan></text><text
       id="temp_ext"
       font-size="25px"
       font-weight="bold"
       x="1526.0537"
       y="325.73386"><tspan
         x="1526.0537"
         y="325.73386"
         id="tspan1562">xxx</tspan></text></g></svg>
